<svg width="900" height="900" viewBox="0 0 900 900" fill="none" xmlns="http://www.w3.org/2000/svg">
<path d="M131.528 491C128.712 491 126.109 490.317 123.72 488.952C121.416 487.587 119.581 485.752 118.216 483.448C116.851 481.059 116.168 478.456 116.168 475.64V414.2C116.168 411.384 116.851 408.824 118.216 406.52C119.581 404.131 121.416 402.253 123.72 400.888C126.109 399.523 128.712 398.84 131.528 398.84H208.072V409.208H131.528C130.163 409.208 128.968 409.72 127.944 410.744C127.005 411.683 126.536 412.835 126.536 414.2V475.64C126.536 477.005 127.005 478.2 127.944 479.224C128.968 480.163 130.163 480.632 131.528 480.632H208.072V491H131.528ZM238.826 491C236.01 491 233.407 490.317 231.018 488.952C228.714 487.501 226.837 485.624 225.386 483.32C224.021 480.931 223.338 478.328 223.338 475.512V432.248C223.338 429.432 224.021 426.872 225.386 424.568C226.837 422.179 228.714 420.301 231.018 418.936C233.407 417.485 236.01 416.76 238.826 416.76H283.37C286.271 416.76 288.874 417.485 291.178 418.936C293.567 420.301 295.445 422.179 296.81 424.568C298.261 426.872 298.986 429.432 298.986 432.248V475.512C298.986 478.328 298.261 480.931 296.81 483.32C295.445 485.624 293.567 487.501 291.178 488.952C288.874 490.317 286.271 491 283.37 491H238.826ZM238.826 480.504H283.37C284.735 480.504 285.887 480.035 286.826 479.096C287.85 478.072 288.362 476.877 288.362 475.512V432.248C288.362 430.883 287.85 429.731 286.826 428.792C285.887 427.768 284.735 427.256 283.37 427.256H238.826C237.461 427.256 236.266 427.768 235.242 428.792C234.303 429.731 233.834 430.883 233.834 432.248V475.512C233.834 476.877 234.303 478.072 235.242 479.096C236.266 480.035 237.461 480.504 238.826 480.504ZM313.032 491V416.76H373.192C376.008 416.76 378.568 417.485 380.872 418.936C383.261 420.301 385.139 422.179 386.504 424.568C387.955 426.872 388.68 429.432 388.68 432.248V491H378.184V432.248C378.184 430.883 377.672 429.731 376.648 428.792C375.709 427.768 374.557 427.256 373.192 427.256H328.648C327.283 427.256 326.088 427.768 325.064 428.792C324.04 429.731 323.528 430.883 323.528 432.248V491H313.032ZM420.077 491C417.176 491 414.53 490.317 412.141 488.952C409.837 487.501 408.002 485.624 406.637 483.32C405.272 480.931 404.589 478.328 404.589 475.512V392.44H415.085V416.76H447.213V427.256H415.085V475.512C415.085 476.877 415.554 478.072 416.493 479.096C417.517 480.035 418.712 480.504 420.077 480.504H447.213V491H420.077ZM459.521 491V432.248C459.521 429.432 460.204 426.872 461.569 424.568C463.02 422.179 464.897 420.301 467.201 418.936C469.59 417.485 472.193 416.76 475.009 416.76H516.737V427.256H475.009C473.644 427.256 472.449 427.768 471.425 428.792C470.486 429.731 470.017 430.883 470.017 432.248V491H459.521ZM527.581 491V416.76H538.077V491H527.581ZM527.581 402.936V392.44H538.077V402.936H527.581ZM557.022 491V392.44H567.518V416.76H617.182C619.998 416.76 622.558 417.485 624.862 418.936C627.251 420.301 629.129 422.179 630.494 424.568C631.945 426.872 632.67 429.432 632.67 432.248V475.512C632.67 478.328 631.945 480.931 630.494 483.32C629.129 485.624 627.251 487.501 624.862 488.952C622.558 490.317 619.998 491 617.182 491H557.022ZM572.638 480.504H617.182C618.547 480.504 619.699 480.035 620.638 479.096C621.662 478.072 622.174 476.877 622.174 475.512V432.248C622.174 430.883 621.662 429.731 620.638 428.792C619.699 427.768 618.547 427.256 617.182 427.256H572.638C571.273 427.256 570.078 427.768 569.054 428.792C568.03 429.731 567.518 430.883 567.518 432.248V475.512C567.518 476.877 568.03 478.072 569.054 479.096C570.078 480.035 571.273 480.504 572.638 480.504ZM660.061 491C657.245 491 654.642 490.317 652.253 488.952C649.949 487.501 648.072 485.624 646.621 483.32C645.256 480.931 644.573 478.328 644.573 475.512V432.248C644.573 429.432 645.256 426.872 646.621 424.568C648.072 422.179 649.949 420.301 652.253 418.936C654.642 417.485 657.245 416.76 660.061 416.76H704.605C707.506 416.76 710.109 417.485 712.413 418.936C714.802 420.301 716.68 422.179 718.045 424.568C719.496 426.872 720.221 429.432 720.221 432.248V475.512C720.221 478.328 719.496 480.931 718.045 483.32C716.68 485.624 714.802 487.501 712.413 488.952C710.109 490.317 707.506 491 704.605 491H660.061ZM660.061 480.504H704.605C705.97 480.504 707.122 480.035 708.061 479.096C709.085 478.072 709.597 476.877 709.597 475.512V432.248C709.597 430.883 709.085 429.731 708.061 428.792C707.122 427.768 705.97 427.256 704.605 427.256H660.061C658.696 427.256 657.501 427.768 656.477 428.792C655.538 429.731 655.069 430.883 655.069 432.248V475.512C655.069 476.877 655.538 478.072 656.477 479.096C657.501 480.035 658.696 480.504 660.061 480.504Z" fill="#34495E"/>
<path d="M724.776 367.416C724.776 386.112 707.863 401.267 687 401.267C666.137 401.267 649.225 386.112 649.225 367.416C649.225 328.589 717.705 305.791 717.705 305.791C717.705 305.791 724.776 348.721 724.776 367.416Z" fill="#4FC497"/>
<path d="M727.332 367.416C727.332 348.768 720.524 307.216 720.234 305.456C720.122 304.773 719.671 304.171 719.007 303.819C718.343 303.467 717.538 303.403 716.815 303.643C716.104 303.88 699.2 309.564 682.016 320.156C671.85 326.423 663.732 333.107 657.887 340.024C650.443 348.834 646.669 358.049 646.669 367.416C646.669 384.933 660.647 399.577 679.132 402.866C680.031 407.971 681.271 412.696 682.825 416.926C683.18 417.89 684.179 418.501 685.253 418.501C685.518 418.501 685.788 418.463 686.053 418.385C687.394 417.989 688.123 416.694 687.682 415.493C686.348 411.864 685.257 407.833 684.427 403.482C685.279 403.531 686.136 403.558 687.001 403.558C709.24 403.558 727.332 387.345 727.332 367.416ZM651.781 367.416C651.781 348.38 669.755 333.289 684.832 323.981C694.722 317.876 704.702 313.388 711.22 310.735C705.812 317.734 695.206 332.353 688.883 346.973C688.373 348.152 689.027 349.479 690.343 349.936C690.647 350.042 690.959 350.092 691.266 350.092C692.291 350.092 693.258 349.536 693.65 348.628C700.007 333.931 711.184 318.799 716.167 312.403C718.108 325.002 722.219 353.353 722.219 367.416C722.219 384.818 706.42 398.976 687 398.976C667.58 398.976 651.781 384.819 651.781 367.416Z" fill="#34495E"/>
<path d="M683.975 366.583C684.008 364.686 684.263 362.599 684.736 360.381C685 359.138 684.09 357.939 682.704 357.701C681.317 357.463 679.978 358.28 679.713 359.522C679.186 362 678.9 364.352 678.863 366.514C678.842 367.779 679.969 368.82 681.381 368.839C681.394 368.839 681.407 368.839 681.42 368.839C682.814 368.839 683.954 367.837 683.975 366.583Z" fill="#333333"/>
</svg>
